HIERARCHY
ROOT Hips
{
  OFFSET -4.35178 90.3298 111.633
  CHANNELS 6 Xposition Yposition Zposition Zrotation Xrotation Yrotation
  JOINT LeftUpLeg
  {
    OFFSET 0.103456 1.85784 10.5485
    CHANNELS 6 Xposition Yposition Zposition Zrotation Xrotation Yrotation
    JOINT LeftLeg
    {
      OFFSET 43.5 -4.2e-05 0
      CHANNELS 6 Xposition Yposition Zposition Zrotation Xrotation Yrotation
      JOINT LeftFoot
      {
        OFFSET 42.3722 1.9e-05 0
        CHANNELS 6 Xposition Yposition Zposition Zrotation Xrotation Yrotation
        JOINT LeftToe
        {
          OFFSET 17.3 0 0
          CHANNELS 6 Xposition Yposition Zposition Zrotation Xrotation Yrotation
          End Site
          {
            OFFSET 0 0 0
          }
        }
      }
    }
  }
  JOINT RightUpLeg
  {
    OFFSET 0.103456 1.85782 -10.5485
    CHANNELS 6 Xposition Yposition Zposition Zrotation Xrotation Yrotation
    JOINT RightLeg
    {
      OFFSET 43.5 -2.7e-05 0
      CHANNELS 6 Xposition Yposition Zposition Zrotation Xrotation Yrotation
      JOINT RightFoot
      {
        OFFSET 42.3723 0 0
        CHANNELS 6 Xposition Yposition Zposition Zrotation Xrotation Yrotation
        JOINT RightToe
        {
          OFFSET 17.3 0 1.7e-05
          CHANNELS 6 Xposition Yposition Zposition Zrotation Xrotation Yrotation
          End Site
          {
            OFFSET 0 0 0
          }
        }
      }
    }
  }
  JOINT Spine
  {
    OFFSET 6.90197 -2.60373 0
    CHANNELS 6 Xposition Yposition Zposition Zrotation Xrotation Yrotation
    JOINT Spine1
    {
      OFFSET 12.5881 0 0
      CHANNELS 6 Xposition Yposition Zposition Zrotation Xrotation Yrotation
      JOINT Spine2
      {
        OFFSET 12.3432 -1.8e-05 0
        CHANNELS 6 Xposition Yposition Zposition Zrotation Xrotation Yrotation
        JOINT Neck
        {
          OFFSET 25.8329 2.3e-05 0
          CHANNELS 6 Xposition Yposition Zposition Zrotation Xrotation Yrotation
          JOINT Head
          {
            OFFSET 11.7666 0 0
            CHANNELS 6 Xposition Yposition Zposition Zrotation Xrotation Yrotation
            End Site
            {
              OFFSET 0 0 0
            }
          }
        }
        JOINT LeftShoulder
        {
          OFFSET 19.7459 -1.48035 6.0001
          CHANNELS 6 Xposition Yposition Zposition Zrotation Xrotation Yrotation
          JOINT LeftArm
          {
            OFFSET 11.2841 1.8e-05 -2e-05
            CHANNELS 6 Xposition Yposition Zposition Zrotation Xrotation Yrotation
            JOINT LeftForeArm
            {
              OFFSET 33 -1.3e-05 1.9e-05
              CHANNELS 6 Xposition Yposition Zposition Zrotation Xrotation Yrotation
              JOINT LeftHand
              {
                OFFSET 25.2 3.2e-05 1.1e-05
                CHANNELS 6 Xposition Yposition Zposition Zrotation Xrotation Yrotation
                End Site
                {
                  OFFSET 0 0 0
                }
              }
            }
          }
        }
        JOINT RightShoulder
        {
          OFFSET 19.7461 -1.48036 -6.00008
          CHANNELS 6 Xposition Yposition Zposition Zrotation Xrotation Yrotation
          JOINT RightArm
          {
            OFFSET 11.2841 0 0
            CHANNELS 6 Xposition Yposition Zposition Zrotation Xrotation Yrotation
            JOINT RightForeArm
            {
              OFFSET 33.0001 1.6e-05 0
              CHANNELS 6 Xposition Yposition Zposition Zrotation Xrotation Yrotation
              JOINT RightHand
              {
                OFFSET 25.1998 0.000123 0.000432
                CHANNELS 6 Xposition Yposition Zposition Zrotation Xrotation Yrotation
                End Site
                {
                  OFFSET 0 0 0
                }
              }
            }
          }
        }
      }
    }
  }
}
MOTION
Frames:	4
Frame Time:	0.0333333
51.093 79.0526 6.72435 89.8916 47.9129 5.85508 0.103456 1.85784 10.5485 -26.978 10.3021 -175.972 43.5 -4.2e-05 1e-05 -94.0961 -14.4244 3.70843 42.3722 1.9e-05 0 72.2192 20.0522 -0.883294 17.3 0 3e-06 21.4546 -1e-06 0.003093 0.103456 1.85782 -10.5485 -9.71251 -7.60859 166.784 43.5 -2.7e-05 4e-06 -71.0154 12.8298 10.1592 42.3723 0 1e-05 97.1112 6.25692 -11.0486 17.3 -6e-06 1.7e-05 21.4546 -1.9e-05 -0.003116 6.90197 -2.60373 -3e-06 12.7091 0.274819 -0.419693 12.5881 1e-05 8e-06 15.4016 0.631237 -0.869167 12.3432 -1.8e-05 -5e-06 15.0753 0.807165 -0.893344 25.8329 2.3e-05 7e-06 4.45064 -6.71609 -6.21515 11.7666 -8e-06 -6e-06 -43.6572 -10.3232 7.12987 19.7459 -1.48035 6.0001 -174.197 3.0864 -86.7014 11.2841 1.8e-05 -2e-05 4.48085 -11.5671 59.3473 33 -1.3e-05 1.9e-05 -80.8202 -11.1446 -3.41232 25.2 3.2e-05 1.1e-05 -17.5479 37.5811 -3.27302 19.7461 -1.48036 -6.00008 -174.375 -9.54701 85.9416 11.2841 0 -1e-06 -27.5929 14.7504 -44.1589 33.0001 1.6e-05 -1e-06 -90.7638 -2.76912 23.5633 25.1998 0.000123 0.000432 -24.1258 -18.4744 15.2551 
44.7036 79.8828 12.9764 87.1149 52.0095 7.64331 0.103456 1.85784 10.5485 -35.7704 14.5656 179.789 43.5 -4.2e-05 1e-05 -89.0807 -12.3531 7.70458 42.3722 1.9e-05 -7.10543e-15 76.0797 9.36318 2.00232 17.3 -1.77636e-15 3e-06 21.4546 -1e-06 0.003093 0.103456 1.85782 -10.5485 2.5846 -10.3 167.478 43.5 -2.7e-05 4e-06 -63.1887 14.8923 14.022 42.3723 7.10543e-15 1e-05 91.4392 3.43903 -9.25424 17.3 -6e-06 1.7e-05 21.4546 -1.9e-05 -0.003116 6.90197 -2.60373 -3e-06 12.7004 0.136612 -0.301347 12.5881 1e-05 8e-06 15.3852 0.384845 -0.601983 12.3432 -1.8e-05 -5e-06 15.0617 0.577537 -0.611422 25.8329 2.3e-05 7e-06 3.86666 -7.29267 -5.97907 11.7666 -8e-06 -6e-06 -41.9896 -11.4579 7.83434 19.7459 -1.48035 6.0001 -172.514 1.26059 -86.1545 11.2841 1.8e-05 -2e-05 5.02756 -6.62263 56.315 33 -1.3e-05 1.9e-05 -83.5932 -14.2053 -3.71972 25.2 3.2e-05 1.1e-05 -18.6691 38.5915 -3.15908 19.7461 -1.48036 -6.00008 -174.404 -8.30244 86.5453 11.2841 -1.42109e-14 -1e-06 -29.8791 15.2386 -42.3683 33.0001 1.6e-05 -1e-06 -105.553 -8.33607 22.9114 25.1998 0.000123 0.000432 -25.2826 -21.797 18.6801 
37.8867 81.0982 19.6772 84.667 55.5114 9.32311 0.103456 1.85784 10.5485 -39.9402 18.0278 174.224 43.5 -4.2e-05 1e-05 -76.3023 -10.37 11.2259 42.3722 1.9e-05 0 76.8116 4.28577 0.943378 17.3 -1.77636e-15 3e-06 21.4546 -1e-06 0.003093 0.103456 1.85782 -10.5485 13.8975 -12.4631 169.925 43.5 -2.7e-05 4e-06 -54.6811 18.8032 15.9387 42.3723 -7.10543e-15 1e-05 80.4132 -4.05894 -5.74645 17.3 -6e-06 1.7e-05 21.4546 -1.9e-05 -0.003116 6.90197 -2.60373 -3e-06 12.5828 0.0800985 -0.286545 12.5881 1e-05 8e-06 15.1511 0.274071 -0.559222 12.3432 -1.8e-05 -5e-06 14.8291 0.466096 -0.561635 25.8329 2.3e-05 7e-06 2.90871 -7.88411 -5.57563 11.7666 -8e-06 -6e-06 -40.6839 -12.6237 8.27149 19.7459 -1.48035 6.0001 -170.883 -0.0662448 -85.2641 11.2841 1.8e-05 -2e-05 4.73877 -1.53817 53.7703 33 -1.3e-05 1.9e-05 -85.2767 -18.9452 -4.24465 25.2 3.2e-05 1.1e-05 -18.6559 39.7486 -3.84884 19.7461 -1.48036 -6.00008 -173.962 -7.08078 86.2128 11.2841 0 -1e-06 -30.1274 15.8533 -40.7871 33.0001 1.6e-05 -1e-06 -116.517 -13.8537 18.631 25.1998 0.000123 0.000432 -25.0128 -25.3353 21.6025 
30.6229 82.3744 27.0314 82.7933 58.1854 10.7839 0.103456 1.85784 10.5485 -38.6049 19.6646 169.405 43.5 -4.2e-05 1e-05 -57.1 -6.47274 11.7171 42.3722 1.9e-05 0 76.6583 2.54895 -4.56453 17.3 0 3e-06 21.4546 -1e-06 0.003093 0.103456 1.85782 -10.5485 23.2533 -15.1834 172.357 43.5 -2.7e-05 4e-06 -46.6718 23.7582 15.6826 42.3723 7.10543e-15 1e-05 67.1661 -19.8573 -0.36233 17.3 -6e-06 1.7e-05 21.4546 -1.9e-05 -0.003116 6.90197 -2.60373 -3e-06 12.1625 0.252085 -0.334601 12.5881 1e-05 8e-06 14.3079 0.597042 -0.692748 12.3432 -1.8e-05 -5e-06 13.9817 0.767368 -0.713998 25.8329 2.3e-05 7e-06 2.64801 -8.79745 -5.18217 11.7666 -8e-06 -6e-06 -39.6041 -13.9545 8.21914 19.7459 -1.48035 6.0001 -169.397 -0.941575 -83.7438 11.2841 1.8e-05 -2e-05 3.71913 3.3371 52.1244 33 -1.3e-05 1.9e-05 -85.336 -23.0134 -4.41967 25.2 3.2e-05 1.1e-05 -17.7618 40.0302 -4.28766 19.7461 -1.48036 -6.00008 -174.847 -5.51653 86.0984 11.2841 0 -1e-06 -32.3629 10.9855 -40.4934 33.0001 1.6e-05 -1e-06 -117.835 -13.2207 18.7196 25.1998 0.000123 0.000432 -25.3737 -29.7974 24.5009 
